<svg width="117" height="46" viewBox="0 0 117 46" fill="none" xmlns="http://www.w3.org/2000/svg">
<g filter="url(#filter0_d_1_52)">
<rect x="4" y="4" width="109" height="38" rx="15" fill="white"/>
<rect x="4.5" y="4.5" width="108" height="37" rx="14.5" stroke="#484848"/>
</g>
<path d="M43.6992 30V15.9082H52.4297V17.4902H45.457V22.0117H52.0684V23.5742H45.457V28.418H52.4297V30H43.6992ZM54.3633 30L57.9277 24.7754L54.3438 19.5605H56.3164L58.8066 23.4473H58.9336L61.3945 19.5605H63.2891L59.7539 24.707L63.3184 30H61.3555L58.875 26.0547H58.748L56.2578 30H54.3633ZM65.418 33.4961V19.5605H67.1172V21.25H67.2539C67.4688 20.8594 67.7357 20.5241 68.0547 20.2441C68.3802 19.9642 68.748 19.7493 69.1582 19.5996C69.5749 19.4499 70.0273 19.375 70.5156 19.375C71.401 19.375 72.1725 19.5996 72.8301 20.0488C73.4876 20.4915 73.9987 21.1198 74.3633 21.9336C74.7279 22.7409 74.9102 23.6882 74.9102 24.7754V24.7852C74.9102 25.8789 74.7279 26.8294 74.3633 27.6367C73.9987 28.444 73.4876 29.0723 72.8301 29.5215C72.1725 29.9642 71.4043 30.1855 70.5254 30.1855C70.0436 30.1855 69.5911 30.1107 69.168 29.9609C68.7448 29.8047 68.3672 29.5898 68.0352 29.3164C67.7096 29.043 67.4492 28.7142 67.2539 28.3301H67.1172V33.4961H65.418ZM70.1445 28.6816C70.776 28.6816 71.3164 28.5254 71.7656 28.2129C72.2214 27.9004 72.5697 27.4544 72.8105 26.875C73.0514 26.2891 73.1719 25.5924 73.1719 24.7852V24.7754C73.1719 23.9616 73.0514 23.265 72.8105 22.6855C72.5697 22.1061 72.2214 21.6602 71.7656 21.3477C71.3164 21.0352 70.776 20.8789 70.1445 20.8789C69.5195 20.8789 68.9759 21.0384 68.5137 21.3574C68.0579 21.6699 67.7064 22.1191 67.459 22.7051C67.2116 23.2845 67.0879 23.9746 67.0879 24.7754V24.7852C67.0879 25.5859 67.2116 26.2793 67.459 26.8652C67.7129 27.4447 68.0677 27.8939 68.5234 28.2129C68.9792 28.5254 69.5195 28.6816 70.1445 28.6816ZM81.6387 30.1855C80.6556 30.1855 79.8027 29.9674 79.0801 29.5312C78.3574 29.0951 77.7975 28.4733 77.4004 27.666C77.0098 26.8587 76.8145 25.8984 76.8145 24.7852V24.7656C76.8145 23.6523 77.0098 22.6921 77.4004 21.8848C77.7975 21.0775 78.3574 20.459 79.0801 20.0293C79.8027 19.5931 80.6523 19.375 81.6289 19.375C82.6185 19.375 83.4714 19.5931 84.1875 20.0293C84.9102 20.459 85.4668 21.0775 85.8574 21.8848C86.2546 22.6921 86.4531 23.6523 86.4531 24.7656V24.7852C86.4531 25.8984 86.2546 26.8587 85.8574 27.666C85.4668 28.4733 84.9102 29.0951 84.1875 29.5312C83.4714 29.9674 82.6217 30.1855 81.6387 30.1855ZM81.6387 28.6816C82.2832 28.6816 82.8333 28.5286 83.2891 28.2227C83.7513 27.9102 84.1029 27.4642 84.3438 26.8848C84.5911 26.3053 84.7148 25.6055 84.7148 24.7852V24.7656C84.7148 23.9453 84.5911 23.2454 84.3438 22.666C84.1029 22.0866 83.7513 21.6439 83.2891 21.3379C82.8333 21.0319 82.2799 20.8789 81.6289 20.8789C80.9844 20.8789 80.431 21.0319 79.9688 21.3379C79.513 21.6439 79.1615 22.0866 78.9141 22.666C78.6732 23.2454 78.5527 23.9453 78.5527 24.7656V24.7852C78.5527 25.6055 78.6732 26.3053 78.9141 26.8848C79.1615 27.4642 79.513 27.9102 79.9688 28.2227C80.431 28.5286 80.9876 28.6816 81.6387 28.6816ZM88.875 30V19.5605H90.5742V21.1621H90.7109C90.8997 20.6022 91.2285 20.166 91.6973 19.8535C92.166 19.5345 92.7389 19.375 93.416 19.375C93.5723 19.375 93.7253 19.3848 93.875 19.4043C94.0247 19.4173 94.1419 19.4303 94.2266 19.4434V21.0938C94.0768 21.0612 93.9173 21.0384 93.748 21.0254C93.5853 21.0059 93.4062 20.9961 93.2109 20.9961C92.6966 20.9961 92.2409 21.1003 91.8438 21.3086C91.4466 21.5169 91.1341 21.8132 90.9062 22.1973C90.6849 22.5749 90.5742 23.0208 90.5742 23.5352V30H88.875ZM100.076 30.1074C99.028 30.1074 98.263 29.8893 97.7812 29.4531C97.306 29.0104 97.0684 28.2943 97.0684 27.3047V20.9668H95.4473V19.5605H97.0684V16.8359H98.8262V19.5605H101.043V20.9668H98.8262V26.9727C98.8262 27.5716 98.9434 27.998 99.1777 28.252C99.4121 28.4993 99.793 28.623 100.32 28.623C100.457 28.623 100.577 28.6198 100.682 28.6133C100.786 28.6068 100.906 28.597 101.043 28.584V30.0195C100.893 30.0391 100.737 30.0586 100.574 30.0781C100.411 30.0977 100.245 30.1074 100.076 30.1074Z" fill="#484848"/>
<path d="M31 21.8708V29.426C31 29.8434 30.8397 30.2438 30.5543 30.539C30.2689 30.8342 29.8819 31 29.4783 31H18.5217C18.1181 31 17.7311 30.8342 17.4457 30.539C17.1603 30.2438 17 29.8434 17 29.426V21.8708C17 21.4533 17.1603 21.053 17.4457 20.7578C17.7311 20.4626 18.1181 20.2968 18.5217 20.2968H20.3478C20.59 20.2968 20.8222 20.3963 20.9934 20.5734C21.1647 20.7505 21.2609 20.9907 21.2609 21.2412C21.2609 21.4916 21.1647 21.7319 20.9934 21.909C20.8222 22.0861 20.59 22.1856 20.3478 22.1856H18.8261V29.1112H29.1739V22.1856H27.6522C27.41 22.1856 27.1778 22.0861 27.0066 21.909C26.8353 21.7319 26.7391 21.4916 26.7391 21.2412C26.7391 20.9907 26.8353 20.7505 27.0066 20.5734C27.1778 20.3963 27.41 20.2968 27.6522 20.2968H29.4783C29.8819 20.2968 30.2689 20.4626 30.5543 20.7578C30.8397 21.053 31 21.4533 31 21.8708ZM21.6025 18.7613L23.087 17.2275V23.7596C23.087 24.01 23.1832 24.2503 23.3544 24.4274C23.5256 24.6045 23.7578 24.704 24 24.704C24.2422 24.704 24.4744 24.6045 24.6456 24.4274C24.8168 24.2503 24.913 24.01 24.913 23.7596V17.2275L26.3975 18.7637C26.4824 18.8515 26.5833 18.9212 26.6942 18.9688C26.8052 19.0163 26.9241 19.0408 27.0442 19.0408C27.1643 19.0408 27.2833 19.0163 27.3943 18.9688C27.5052 18.9212 27.606 18.8515 27.691 18.7637C27.7759 18.6758 27.8433 18.5715 27.8892 18.4568C27.9352 18.342 27.9589 18.219 27.9589 18.0947C27.9589 17.9705 27.9352 17.8475 27.8892 17.7327C27.8433 17.6179 27.7759 17.5136 27.691 17.4258L24.6475 14.2778C24.5627 14.1897 24.4619 14.1199 24.3509 14.0722C24.2399 14.0245 24.1209 14 24.0008 14C23.8806 14 23.7616 14.0245 23.6506 14.0722C23.5396 14.1199 23.4388 14.1897 23.354 14.2778L20.3105 17.4258C20.2256 17.5136 20.1582 17.6179 20.1123 17.7327C20.0663 17.8475 20.0427 17.9705 20.0427 18.0947C20.0427 18.3456 20.139 18.5863 20.3105 18.7637C20.4821 18.9411 20.7147 19.0408 20.9573 19.0408C21.1999 19.0408 21.4325 18.9411 21.604 18.7637L21.6025 18.7613Z" fill="#484848"/>
<defs>
<filter id="filter0_d_1_52" x="0" y="0" width="117" height="46" filterUnits="userSpaceOnUse" color-interpolation-filters="sRGB">
<feFlood flood-opacity="0" result="BackgroundImageFix"/>
<feColorMatrix in="SourceAlpha" type="matrix" values="0 0 0 0 0 0 0 0 0 0 0 0 0 0 0 0 0 0 127 0" result="hardAlpha"/>
<feOffset/>
<feGaussianBlur stdDeviation="2"/>
<feComposite in2="hardAlpha" operator="out"/>
<feColorMatrix type="matrix" values="0 0 0 0 0 0 0 0 0 0 0 0 0 0 0 0 0 0 0.25 0"/>
<feBlend mode="normal" in2="BackgroundImageFix" result="effect1_dropShadow_1_52"/>
<feBlend mode="normal" in="SourceGraphic" in2="effect1_dropShadow_1_52" result="shape"/>
</filter>
</defs>
</svg>
