<svg width="287" height="145" viewBox="0 0 287 145" fill="none" xmlns="http://www.w3.org/2000/svg">
<rect x="0.5" y="0.5" width="286" height="144" rx="9.5" fill="white" stroke="#4F617D"/>
<path d="M17.6992 28V13.9082H26.4297V15.4902H19.457V20.0117H26.0684V21.5742H19.457V26.418H26.4297V28H17.6992ZM28.3633 28L31.9277 22.7754L28.3438 17.5605H30.3164L32.8066 21.4473H32.9336L35.3945 17.5605H37.2891L33.7539 22.707L37.3184 28H35.3555L32.875 24.0547H32.748L30.2578 28H28.3633ZM43.2949 28.1855C42.3184 28.1855 41.4688 27.9642 40.7461 27.5215C40.0299 27.0723 39.4733 26.444 39.0762 25.6367C38.6855 24.8229 38.4902 23.8626 38.4902 22.7559V22.7363C38.4902 21.6491 38.6855 20.7051 39.0762 19.9043C39.4733 19.1035 40.0299 18.4818 40.7461 18.0391C41.4622 17.5964 42.3086 17.375 43.2852 17.375C44.138 17.375 44.8704 17.528 45.4824 17.834C46.1009 18.14 46.5924 18.5469 46.957 19.0547C47.3216 19.5625 47.5527 20.1224 47.6504 20.7344L47.6602 20.8027H45.9805L45.9609 20.7637C45.8372 20.2428 45.5475 19.8001 45.0918 19.4355C44.6426 19.0645 44.0404 18.8789 43.2852 18.8789C42.6602 18.8789 42.1198 19.0384 41.6641 19.3574C41.2083 19.6699 40.8535 20.1159 40.5996 20.6953C40.3522 21.2747 40.2285 21.9583 40.2285 22.7461V22.7559C40.2285 23.5632 40.3555 24.2598 40.6094 24.8457C40.8633 25.4316 41.2181 25.8841 41.6738 26.2031C42.1361 26.5221 42.6732 26.6816 43.2852 26.6816C43.9948 26.6816 44.571 26.5254 45.0137 26.2129C45.4629 25.8939 45.7786 25.4414 45.9609 24.8555L45.9805 24.7969L47.6602 24.7871L47.6406 24.8848C47.5104 25.5228 47.2598 26.0924 46.8887 26.5938C46.5176 27.0885 46.0326 27.4792 45.4336 27.7656C44.8346 28.0456 44.1217 28.1855 43.2949 28.1855ZM54.2031 28.1855C53.207 28.1855 52.3509 27.9674 51.6348 27.5312C50.9186 27.0885 50.3685 26.4668 49.9844 25.666C49.6003 24.8587 49.4082 23.9082 49.4082 22.8145V22.8047C49.4082 21.7305 49.6003 20.7865 49.9844 19.9727C50.3685 19.1589 50.9121 18.5241 51.6152 18.0684C52.3249 17.6061 53.1517 17.375 54.0957 17.375C55.0397 17.375 55.8535 17.5964 56.5371 18.0391C57.2207 18.4753 57.7448 19.0872 58.1094 19.875C58.474 20.6562 58.6562 21.5677 58.6562 22.6094V23.2637H50.2773V21.9062H57.7969L56.957 23.1465V22.4824C56.957 21.6621 56.8333 20.9883 56.5859 20.4609C56.3385 19.9336 56 19.5397 55.5703 19.2793C55.1406 19.0189 54.6458 18.8887 54.0859 18.8887C53.526 18.8887 53.0247 19.0254 52.582 19.2988C52.1393 19.5723 51.7878 19.9759 51.5273 20.5098C51.2734 21.0436 51.1465 21.7012 51.1465 22.4824V23.1465C51.1465 23.8887 51.2702 24.5234 51.5176 25.0508C51.7715 25.5716 52.1296 25.972 52.5918 26.252C53.0605 26.5319 53.6107 26.6719 54.2422 26.6719C54.7044 26.6719 55.1081 26.6068 55.4531 26.4766C55.8047 26.3464 56.0944 26.1803 56.3223 25.9785C56.5501 25.7702 56.7096 25.5521 56.8008 25.3242L56.8398 25.2363H58.5293L58.5098 25.3145C58.4251 25.6855 58.2656 26.0436 58.0312 26.3887C57.7969 26.7272 57.4974 27.0332 57.1328 27.3066C56.7682 27.5801 56.3385 27.7949 55.8438 27.9512C55.349 28.1074 54.8021 28.1855 54.2031 28.1855ZM61.1758 28V13.4395H62.875V28H61.1758Z" fill="#484848"/>
<path d="M118.578 22.9707V21.4082H122.494C123.503 21.4082 124.285 21.1478 124.838 20.627C125.391 20.0996 125.668 19.3737 125.668 18.4492V18.4297C125.668 17.4987 125.391 16.7728 124.838 16.252C124.285 15.7311 123.503 15.4707 122.494 15.4707H118.578V13.9082H122.943C123.829 13.9082 124.61 14.097 125.287 14.4746C125.964 14.8522 126.495 15.3796 126.879 16.0566C127.27 16.7337 127.465 17.5182 127.465 18.4102V18.4297C127.465 19.3216 127.27 20.1094 126.879 20.793C126.495 21.4766 125.964 22.0104 125.287 22.3945C124.61 22.7786 123.829 22.9707 122.943 22.9707H118.578ZM117.699 28V13.9082H119.457V28H117.699ZM130.141 28V13.9082H134.945C136.339 13.9082 137.53 14.1882 138.52 14.748C139.516 15.3014 140.277 16.1022 140.805 17.1504C141.332 18.1986 141.596 19.4616 141.596 20.9395V20.959C141.596 22.4368 141.332 23.7031 140.805 24.7578C140.277 25.806 139.519 26.61 138.529 27.1699C137.54 27.7233 136.345 28 134.945 28H130.141ZM131.898 26.418H134.828C135.883 26.418 136.781 26.2031 137.523 25.7734C138.266 25.3438 138.829 24.7253 139.213 23.918C139.604 23.1042 139.799 22.1243 139.799 20.9785V20.959C139.799 19.8066 139.604 18.8236 139.213 18.0098C138.822 17.1895 138.256 16.5645 137.514 16.1348C136.771 15.7051 135.876 15.4902 134.828 15.4902H131.898V26.418ZM144.457 28V13.9082H153.012V15.4902H146.215V20.334H152.455V21.8965H146.215V28H144.457Z" fill="#484848"/>
<path d="M17.6992 76V61.9082H22.5039C23.8971 61.9082 25.0885 62.1882 26.0781 62.748C27.0742 63.3014 27.8359 64.1022 28.3633 65.1504C28.8906 66.1986 29.1543 67.4616 29.1543 68.9395V68.959C29.1543 70.4368 28.8906 71.7031 28.3633 72.7578C27.8359 73.806 27.0775 74.61 26.0879 75.1699C25.0983 75.7233 23.9036 76 22.5039 76H17.6992ZM19.457 74.418H22.3867C23.4414 74.418 24.3398 74.2031 25.082 73.7734C25.8242 73.3438 26.3874 72.7253 26.7715 71.918C27.1621 71.1042 27.3574 70.1243 27.3574 68.9785V68.959C27.3574 67.8066 27.1621 66.8236 26.7715 66.0098C26.3809 65.1895 25.8145 64.5645 25.0723 64.1348C24.3301 63.7051 23.4349 63.4902 22.3867 63.4902H19.457V74.418ZM36.0586 76.1855C35.0625 76.1855 34.2064 75.9674 33.4902 75.5312C32.7741 75.0885 32.224 74.4668 31.8398 73.666C31.4557 72.8587 31.2637 71.9082 31.2637 70.8145V70.8047C31.2637 69.7305 31.4557 68.7865 31.8398 67.9727C32.224 67.1589 32.7676 66.5241 33.4707 66.0684C34.1803 65.6061 35.0072 65.375 35.9512 65.375C36.8952 65.375 37.709 65.5964 38.3926 66.0391C39.0762 66.4753 39.6003 67.0872 39.9648 67.875C40.3294 68.6562 40.5117 69.5677 40.5117 70.6094V71.2637H32.1328V69.9062H39.6523L38.8125 71.1465V70.4824C38.8125 69.6621 38.6888 68.9883 38.4414 68.4609C38.194 67.9336 37.8555 67.5397 37.4258 67.2793C36.9961 67.0189 36.5013 66.8887 35.9414 66.8887C35.3815 66.8887 34.8802 67.0254 34.4375 67.2988C33.9948 67.5723 33.6432 67.9759 33.3828 68.5098C33.1289 69.0436 33.002 69.7012 33.002 70.4824V71.1465C33.002 71.8887 33.1257 72.5234 33.373 73.0508C33.627 73.5716 33.985 73.972 34.4473 74.252C34.916 74.5319 35.4661 74.6719 36.0977 74.6719C36.5599 74.6719 36.9635 74.6068 37.3086 74.4766C37.6602 74.3464 37.9499 74.1803 38.1777 73.9785C38.4056 73.7702 38.5651 73.5521 38.6562 73.3242L38.6953 73.2363H40.3848L40.3652 73.3145C40.2806 73.6855 40.1211 74.0436 39.8867 74.3887C39.6523 74.7272 39.3529 75.0332 38.9883 75.3066C38.6237 75.5801 38.194 75.7949 37.6992 75.9512C37.2044 76.1074 36.6576 76.1855 36.0586 76.1855ZM46.5762 76.1074C45.528 76.1074 44.763 75.8893 44.2812 75.4531C43.806 75.0104 43.5684 74.2943 43.5684 73.3047V66.9668H41.9473V65.5605H43.5684V62.8359H45.3262V65.5605H47.543V66.9668H45.3262V72.9727C45.3262 73.5716 45.4434 73.998 45.6777 74.252C45.9121 74.4993 46.293 74.623 46.8203 74.623C46.957 74.623 47.0775 74.6198 47.1816 74.6133C47.2858 74.6068 47.4062 74.597 47.543 74.584V76.0195C47.3932 76.0391 47.237 76.0586 47.0742 76.0781C46.9115 76.0977 46.7454 76.1074 46.5762 76.1074ZM52.7773 76.1855C52.1133 76.1855 51.5176 76.0586 50.9902 75.8047C50.4694 75.5508 50.056 75.1927 49.75 74.7305C49.4505 74.2617 49.3008 73.7116 49.3008 73.0801V73.0605C49.3008 72.4421 49.4473 71.9147 49.7402 71.4785C50.0397 71.0358 50.4727 70.6875 51.0391 70.4336C51.6055 70.1797 52.2923 70.0299 53.0996 69.9844L56.9375 69.7598V71.1074L53.3047 71.332C52.5299 71.3776 51.957 71.5436 51.5859 71.8301C51.2214 72.1165 51.0391 72.5169 51.0391 73.0312V73.0508C51.0391 73.5716 51.2344 73.9785 51.625 74.2715C52.0221 74.5645 52.5267 74.7109 53.1387 74.7109C53.7051 74.7109 54.2096 74.597 54.6523 74.3691C55.1016 74.1413 55.4531 73.8288 55.707 73.4316C55.9609 73.0345 56.0879 72.5885 56.0879 72.0938V68.8809C56.0879 68.2363 55.8926 67.7415 55.502 67.3965C55.1113 67.0514 54.5319 66.8789 53.7637 66.8789C53.1257 66.8789 52.6048 66.9993 52.2012 67.2402C51.7975 67.4746 51.5306 67.8034 51.4004 68.2266L51.3906 68.2656H49.7109L49.7207 68.1973C49.7988 67.6439 50.0169 67.1556 50.375 66.7324C50.7331 66.3092 51.2051 65.9772 51.791 65.7363C52.377 65.4954 53.0508 65.375 53.8125 65.375C54.6523 65.375 55.3685 65.515 55.9609 65.7949C56.5599 66.0684 57.0124 66.4655 57.3184 66.9863C57.6309 67.5007 57.7871 68.1159 57.7871 68.832V76H56.0879V74.4277H55.9609C55.7461 74.7988 55.4792 75.1178 55.1602 75.3848C54.8411 75.6452 54.4831 75.8438 54.0859 75.9805C53.6888 76.1172 53.2526 76.1855 52.7773 76.1855ZM60.7266 76V65.5605H62.4258V76H60.7266ZM61.5859 63.6074C61.2734 63.6074 61.0033 63.4935 60.7754 63.2656C60.5475 63.0378 60.4336 62.7676 60.4336 62.4551C60.4336 62.1361 60.5475 61.8659 60.7754 61.6445C61.0033 61.4232 61.2734 61.3125 61.5859 61.3125C61.9049 61.3125 62.1751 61.4232 62.3965 61.6445C62.6178 61.8659 62.7285 62.1361 62.7285 62.4551C62.7285 62.7676 62.6178 63.0378 62.3965 63.2656C62.1751 63.4935 61.9049 63.6074 61.5859 63.6074ZM65.5117 76V61.4395H67.2109V76H65.5117ZM74.5156 76.1855C73.5195 76.1855 72.6634 75.9674 71.9473 75.5312C71.2311 75.0885 70.681 74.4668 70.2969 73.666C69.9128 72.8587 69.7207 71.9082 69.7207 70.8145V70.8047C69.7207 69.7305 69.9128 68.7865 70.2969 67.9727C70.681 67.1589 71.2246 66.5241 71.9277 66.0684C72.6374 65.6061 73.4642 65.375 74.4082 65.375C75.3522 65.375 76.166 65.5964 76.8496 66.0391C77.5332 66.4753 78.0573 67.0872 78.4219 67.875C78.7865 68.6562 78.9688 69.5677 78.9688 70.6094V71.2637H70.5898V69.9062H78.1094L77.2695 71.1465V70.4824C77.2695 69.6621 77.1458 68.9883 76.8984 68.4609C76.651 67.9336 76.3125 67.5397 75.8828 67.2793C75.4531 67.0189 74.9583 66.8887 74.3984 66.8887C73.8385 66.8887 73.3372 67.0254 72.8945 67.2988C72.4518 67.5723 72.1003 67.9759 71.8398 68.5098C71.5859 69.0436 71.459 69.7012 71.459 70.4824V71.1465C71.459 71.8887 71.5827 72.5234 71.8301 73.0508C72.084 73.5716 72.4421 73.972 72.9043 74.252C73.373 74.5319 73.9232 74.6719 74.5547 74.6719C75.0169 74.6719 75.4206 74.6068 75.7656 74.4766C76.1172 74.3464 76.4069 74.1803 76.6348 73.9785C76.8626 73.7702 77.0221 73.5521 77.1133 73.3242L77.1523 73.2363H78.8418L78.8223 73.3145C78.7376 73.6855 78.5781 74.0436 78.3438 74.3887C78.1094 74.7272 77.8099 75.0332 77.4453 75.3066C77.0807 75.5801 76.651 75.7949 76.1562 75.9512C75.6615 76.1074 75.1146 76.1855 74.5156 76.1855ZM85.2676 76.1855C84.3822 76.1855 83.6107 75.9642 82.9531 75.5215C82.2956 75.0723 81.7845 74.444 81.4199 73.6367C81.0553 72.8229 80.873 71.8724 80.873 70.7852V70.7656C80.873 69.6784 81.0553 68.7311 81.4199 67.9238C81.7845 67.1165 82.2956 66.4915 82.9531 66.0488C83.6107 65.5996 84.3789 65.375 85.2578 65.375C85.7396 65.375 86.1921 65.4531 86.6152 65.6094C87.0384 65.7591 87.416 65.9707 87.748 66.2441C88.0801 66.5176 88.3405 66.8464 88.5293 67.2305H88.666V61.4395H90.3652V76H88.666V74.3105H88.5293C88.321 74.7012 88.054 75.0365 87.7285 75.3164C87.403 75.5964 87.0319 75.8112 86.6152 75.9609C86.2051 76.1107 85.7559 76.1855 85.2676 76.1855ZM85.6387 74.6816C86.2637 74.6816 86.804 74.5254 87.2598 74.2129C87.722 73.8939 88.0768 73.4414 88.3242 72.8555C88.5716 72.2695 88.6953 71.5794 88.6953 70.7852V70.7656C88.6953 69.9714 88.5684 69.2845 88.3145 68.7051C88.0671 68.1191 87.7155 67.6699 87.2598 67.3574C86.804 67.0384 86.2637 66.8789 85.6387 66.8789C85.0137 66.8789 84.4733 67.0352 84.0176 67.3477C83.5618 67.6602 83.2135 68.1061 82.9727 68.6855C82.7318 69.265 82.6113 69.9583 82.6113 70.7656V70.7852C82.6113 71.5924 82.7318 72.2891 82.9727 72.875C83.2135 73.4544 83.5618 73.9004 84.0176 74.2129C84.4733 74.5254 85.0137 74.6816 85.6387 74.6816Z" fill="#4F617D"/>
<path d="M145.309 76.3125C144.286 76.3125 143.391 76.1465 142.623 75.8145C141.855 75.4824 141.246 75.0234 140.797 74.4375C140.354 73.8451 140.097 73.1647 140.025 72.3965L140.016 72.2793H141.773L141.793 72.3965C141.845 72.8652 142.027 73.2721 142.34 73.6172C142.652 73.9557 143.072 74.2194 143.6 74.4082C144.127 74.597 144.729 74.6914 145.406 74.6914C146.057 74.6914 146.63 74.5905 147.125 74.3887C147.626 74.1868 148.017 73.9036 148.297 73.5391C148.577 73.1745 148.717 72.7546 148.717 72.2793V72.2695C148.717 71.6771 148.502 71.1855 148.072 70.7949C147.643 70.3978 146.943 70.0918 145.973 69.877L144.41 69.5352C143.01 69.2227 141.985 68.7409 141.334 68.0898C140.689 67.4388 140.367 66.6022 140.367 65.5801V65.5703C140.374 64.7891 140.589 64.1022 141.012 63.5098C141.435 62.9108 142.018 62.4421 142.76 62.1035C143.508 61.765 144.365 61.5957 145.328 61.5957C146.266 61.5957 147.096 61.765 147.818 62.1035C148.541 62.4355 149.114 62.888 149.537 63.4609C149.967 64.0273 150.204 64.6719 150.25 65.3945L150.26 65.5312H148.502L148.482 65.4043C148.417 64.9681 148.248 64.5872 147.975 64.2617C147.701 63.9362 147.337 63.6823 146.881 63.5C146.425 63.3112 145.891 63.2168 145.279 63.2168C144.687 63.2168 144.156 63.3112 143.688 63.5C143.219 63.6823 142.848 63.946 142.574 64.291C142.301 64.6296 142.164 65.0397 142.164 65.5215V65.5312C142.164 66.0977 142.376 66.5729 142.799 66.957C143.222 67.3346 143.906 67.6243 144.85 67.8262L146.412 68.1777C147.395 68.3926 148.186 68.6725 148.785 69.0176C149.384 69.3626 149.82 69.7858 150.094 70.2871C150.374 70.7884 150.514 71.3809 150.514 72.0645V72.0742C150.514 72.9466 150.299 73.6986 149.869 74.3301C149.446 74.9616 148.844 75.4499 148.062 75.7949C147.281 76.14 146.363 76.3125 145.309 76.3125ZM156.52 76.1855C155.738 76.1855 155.077 76.0358 154.537 75.7363C154.003 75.4303 153.6 74.9876 153.326 74.4082C153.059 73.8288 152.926 73.1354 152.926 72.3281V65.5605H154.625V71.9375C154.625 72.8555 154.811 73.5423 155.182 73.998C155.553 74.4538 156.152 74.6816 156.979 74.6816C157.428 74.6816 157.825 74.6133 158.17 74.4766C158.515 74.3398 158.808 74.1445 159.049 73.8906C159.29 73.6367 159.469 73.3275 159.586 72.9629C159.71 72.5983 159.771 72.1882 159.771 71.7324V65.5605H161.471V76H159.771V74.457H159.645C159.475 74.8151 159.244 75.1243 158.951 75.3848C158.658 75.6452 158.307 75.8438 157.896 75.9805C157.493 76.1172 157.034 76.1855 156.52 76.1855ZM164.41 76V65.5605H166.109V67.1328H166.246C166.474 66.5859 166.832 66.1562 167.32 65.8438C167.809 65.5312 168.391 65.375 169.068 65.375C169.544 65.375 169.967 65.4531 170.338 65.6094C170.715 65.7656 171.041 65.9837 171.314 66.2637C171.588 66.5371 171.806 66.8626 171.969 67.2402H172.096C172.285 66.8626 172.538 66.5339 172.857 66.2539C173.176 65.974 173.544 65.7591 173.961 65.6094C174.378 65.4531 174.827 65.375 175.309 65.375C176.012 65.375 176.611 65.5085 177.105 65.7754C177.607 66.0423 177.988 66.4329 178.248 66.9473C178.515 67.4551 178.648 68.0671 178.648 68.7832V76H176.949V69.1738C176.949 68.666 176.868 68.2428 176.705 67.9043C176.549 67.5658 176.308 67.3118 175.982 67.1426C175.657 66.9668 175.253 66.8789 174.771 66.8789C174.296 66.8789 173.876 66.9896 173.512 67.2109C173.154 67.4258 172.874 67.7155 172.672 68.0801C172.47 68.4447 172.369 68.8548 172.369 69.3105V76H170.67V68.9297C170.67 68.5195 170.582 68.1615 170.406 67.8555C170.23 67.543 169.98 67.3021 169.654 67.1328C169.329 66.9635 168.948 66.8789 168.512 66.8789C168.056 66.8789 167.646 66.9961 167.281 67.2305C166.923 67.4648 166.637 67.7806 166.422 68.1777C166.214 68.5749 166.109 69.0208 166.109 69.5156V76H164.41ZM181.5 76V65.5605H183.199V67.1328H183.336C183.564 66.5859 183.922 66.1562 184.41 65.8438C184.898 65.5312 185.481 65.375 186.158 65.375C186.633 65.375 187.057 65.4531 187.428 65.6094C187.805 65.7656 188.131 65.9837 188.404 66.2637C188.678 66.5371 188.896 66.8626 189.059 67.2402H189.186C189.374 66.8626 189.628 66.5339 189.947 66.2539C190.266 65.974 190.634 65.7591 191.051 65.6094C191.467 65.4531 191.917 65.375 192.398 65.375C193.102 65.375 193.701 65.5085 194.195 65.7754C194.697 66.0423 195.077 66.4329 195.338 66.9473C195.605 67.4551 195.738 68.0671 195.738 68.7832V76H194.039V69.1738C194.039 68.666 193.958 68.2428 193.795 67.9043C193.639 67.5658 193.398 67.3118 193.072 67.1426C192.747 66.9668 192.343 66.8789 191.861 66.8789C191.386 66.8789 190.966 66.9896 190.602 67.2109C190.243 67.4258 189.964 67.7155 189.762 68.0801C189.56 68.4447 189.459 68.8548 189.459 69.3105V76H187.76V68.9297C187.76 68.5195 187.672 68.1615 187.496 67.8555C187.32 67.543 187.07 67.3021 186.744 67.1328C186.419 66.9635 186.038 66.8789 185.602 66.8789C185.146 66.8789 184.736 66.9961 184.371 67.2305C184.013 67.4648 183.727 67.7806 183.512 68.1777C183.303 68.5749 183.199 69.0208 183.199 69.5156V76H181.5ZM201.5 76.1855C200.836 76.1855 200.24 76.0586 199.713 75.8047C199.192 75.5508 198.779 75.1927 198.473 74.7305C198.173 74.2617 198.023 73.7116 198.023 73.0801V73.0605C198.023 72.4421 198.17 71.9147 198.463 71.4785C198.762 71.0358 199.195 70.6875 199.762 70.4336C200.328 70.1797 201.015 70.0299 201.822 69.9844L205.66 69.7598V71.1074L202.027 71.332C201.253 71.3776 200.68 71.5436 200.309 71.8301C199.944 72.1165 199.762 72.5169 199.762 73.0312V73.0508C199.762 73.5716 199.957 73.9785 200.348 74.2715C200.745 74.5645 201.249 74.7109 201.861 74.7109C202.428 74.7109 202.932 74.597 203.375 74.3691C203.824 74.1413 204.176 73.8288 204.43 73.4316C204.684 73.0345 204.811 72.5885 204.811 72.0938V68.8809C204.811 68.2363 204.615 67.7415 204.225 67.3965C203.834 67.0514 203.255 66.8789 202.486 66.8789C201.848 66.8789 201.327 66.9993 200.924 67.2402C200.52 67.4746 200.253 67.8034 200.123 68.2266L200.113 68.2656H198.434L198.443 68.1973C198.521 67.6439 198.74 67.1556 199.098 66.7324C199.456 66.3092 199.928 65.9772 200.514 65.7363C201.1 65.4954 201.773 65.375 202.535 65.375C203.375 65.375 204.091 65.515 204.684 65.7949C205.283 66.0684 205.735 66.4655 206.041 66.9863C206.354 67.5007 206.51 68.1159 206.51 68.832V76H204.811V74.4277H204.684C204.469 74.7988 204.202 75.1178 203.883 75.3848C203.564 75.6452 203.206 75.8438 202.809 75.9805C202.411 76.1172 201.975 76.1855 201.5 76.1855ZM209.391 76V65.5605H211.09V67.1621H211.227C211.415 66.6022 211.744 66.166 212.213 65.8535C212.682 65.5345 213.255 65.375 213.932 65.375C214.088 65.375 214.241 65.3848 214.391 65.4043C214.54 65.4173 214.658 65.4303 214.742 65.4434V67.0938C214.592 67.0612 214.433 67.0384 214.264 67.0254C214.101 67.0059 213.922 66.9961 213.727 66.9961C213.212 66.9961 212.757 67.1003 212.359 67.3086C211.962 67.5169 211.65 67.8132 211.422 68.1973C211.201 68.5749 211.09 69.0208 211.09 69.5352V76H209.391ZM217.73 79.623C217.607 79.623 217.473 79.6165 217.33 79.6035C217.187 79.597 217.06 79.584 216.949 79.5645V78.168C217.04 78.1875 217.145 78.2005 217.262 78.207C217.379 78.2135 217.496 78.2168 217.613 78.2168C218.108 78.2168 218.512 78.0996 218.824 77.8652C219.137 77.6374 219.387 77.224 219.576 76.625L219.781 76.0098L215.914 65.5605H217.73L220.895 75.082L220.299 74.1738H221.031L220.426 75.082L223.59 65.5605H225.377L221.305 76.6445C221.025 77.3997 220.729 77.9922 220.416 78.4219C220.104 78.8581 219.732 79.1673 219.303 79.3496C218.88 79.5319 218.355 79.623 217.73 79.623Z" fill="#4F617D"/>
<circle cx="82.5" cy="20.5" r="11" fill="white" stroke="#484848"/>
<circle cx="171.5" cy="20.5" r="11" fill="white" stroke="#484848"/>
<circle cx="111.5" cy="68.5" r="11" fill="white" stroke="#4F617D"/>
<circle cx="245.5" cy="68.5" r="11" fill="white" stroke="#4F617D"/>
<circle cx="82.5" cy="20.5" r="7.5" fill="#484848"/>
<circle cx="111.5" cy="68.5" r="7.5" fill="#4F617D"/>
<rect x="1" y="45" width="285" height="1" fill="#4F617D"/>
<g filter="url(#filter0_d_1_56)">
<rect x="16" y="104" width="86" height="25" rx="12.5" fill="white"/>
<rect x="16.5" y="104.5" width="85" height="24" rx="12" stroke="#484848"/>
</g>
<path d="M46.2578 121V111.136H52.3691V112.243H47.4883V115.408H52.1162V116.502H47.4883V119.893H52.3691V121H46.2578ZM53.8594 121L56.3818 117.315L53.832 113.631H55.2334L56.9834 116.372H57.0928L58.8223 113.631H60.1553L57.6533 117.268L60.1895 121H58.7949L57.0518 118.218H56.9424L55.1924 121H53.8594ZM61.7891 123.461V113.631H62.9785V114.807H63.0879C63.2383 114.533 63.4274 114.301 63.6553 114.109C63.8831 113.913 64.1429 113.763 64.4346 113.658C64.7262 113.553 65.043 113.501 65.3848 113.501C66.0091 113.501 66.5514 113.66 67.0117 113.979C67.4766 114.294 67.8366 114.736 68.0918 115.306C68.347 115.875 68.4746 116.543 68.4746 117.309V117.322C68.4746 118.092 68.347 118.762 68.0918 119.332C67.8366 119.902 67.4766 120.344 67.0117 120.658C66.5514 120.973 66.0091 121.13 65.3848 121.13C65.0475 121.13 64.7285 121.077 64.4277 120.973C64.1315 120.863 63.8672 120.713 63.6348 120.521C63.4069 120.33 63.2246 120.102 63.0879 119.838H62.9785V123.461H61.7891ZM65.1113 120.077C65.5625 120.077 65.9476 119.968 66.2666 119.749C66.5856 119.526 66.8294 119.209 66.998 118.799C67.1712 118.384 67.2578 117.892 67.2578 117.322V117.309C67.2578 116.734 67.1712 116.242 66.998 115.832C66.8294 115.422 66.5856 115.107 66.2666 114.889C65.9476 114.665 65.5625 114.554 65.1113 114.554C64.6647 114.554 64.2796 114.665 63.9561 114.889C63.6325 115.112 63.3841 115.429 63.2109 115.839C63.0378 116.249 62.9512 116.739 62.9512 117.309V117.322C62.9512 117.887 63.0378 118.377 63.2109 118.792C63.3841 119.202 63.6325 119.519 63.9561 119.742C64.2796 119.965 64.6647 120.077 65.1113 120.077ZM73.3623 121.13C72.665 121.13 72.0612 120.977 71.5508 120.672C71.0449 120.362 70.653 119.922 70.375 119.353C70.1016 118.783 69.9648 118.106 69.9648 117.322V117.309C69.9648 116.52 70.1016 115.841 70.375 115.271C70.653 114.702 71.0449 114.264 71.5508 113.959C72.0612 113.654 72.665 113.501 73.3623 113.501C74.0641 113.501 74.668 113.654 75.1738 113.959C75.6797 114.264 76.0693 114.702 76.3428 115.271C76.6208 115.841 76.7598 116.52 76.7598 117.309V117.322C76.7598 118.106 76.6208 118.783 76.3428 119.353C76.0693 119.922 75.6797 120.362 75.1738 120.672C74.668 120.977 74.0641 121.13 73.3623 121.13ZM73.3623 120.077C73.8271 120.077 74.2214 119.968 74.5449 119.749C74.8685 119.53 75.1146 119.216 75.2832 118.806C75.4564 118.396 75.543 117.901 75.543 117.322V117.309C75.543 116.725 75.4564 116.229 75.2832 115.818C75.1146 115.408 74.8685 115.096 74.5449 114.882C74.2214 114.663 73.8271 114.554 73.3623 114.554C72.8975 114.554 72.5033 114.663 72.1797 114.882C71.8561 115.096 71.6077 115.408 71.4346 115.818C71.266 116.229 71.1816 116.725 71.1816 117.309V117.322C71.1816 117.901 71.266 118.396 71.4346 118.806C71.6077 119.216 71.8561 119.53 72.1797 119.749C72.5033 119.968 72.8975 120.077 73.3623 120.077ZM78.6055 121V113.631H79.7949V114.725H79.9043C80.0456 114.337 80.2848 114.036 80.6221 113.822C80.9593 113.608 81.3763 113.501 81.873 113.501C81.987 113.501 82.0986 113.508 82.208 113.521C82.3219 113.531 82.4085 113.54 82.4678 113.549V114.704C82.3447 114.681 82.224 114.665 82.1055 114.656C81.9915 114.643 81.8685 114.636 81.7363 114.636C81.3581 114.636 81.0231 114.711 80.7314 114.861C80.4398 115.012 80.2096 115.221 80.041 115.49C79.877 115.759 79.7949 116.074 79.7949 116.434V121H78.6055ZM86.6924 121.055C85.9359 121.055 85.3867 120.902 85.0449 120.597C84.7077 120.291 84.5391 119.788 84.5391 119.086V114.615H83.377V113.631H84.5391V111.724H85.7695V113.631H87.3828V114.615H85.7695V118.785C85.7695 119.218 85.8516 119.53 86.0156 119.722C86.1797 119.909 86.4531 120.002 86.8359 120.002C86.9408 120.002 87.0296 120 87.1025 119.995C87.18 119.991 87.2734 119.984 87.3828 119.975V120.986C87.2689 121.005 87.1549 121.021 87.041 121.034C86.9271 121.048 86.8109 121.055 86.6924 121.055Z" fill="#484848"/>
<path d="M39 115.019V120.796C39 121.116 38.874 121.422 38.6498 121.647C38.4256 121.873 38.1215 122 37.8043 122H29.1957C28.8785 122 28.5744 121.873 28.3502 121.647C28.126 121.422 28 121.116 28 120.796V115.019C28 114.7 28.126 114.393 28.3502 114.168C28.5744 113.942 28.8785 113.815 29.1957 113.815H30.6304C30.8207 113.815 31.0032 113.891 31.1377 114.027C31.2722 114.162 31.3478 114.346 31.3478 114.537C31.3478 114.729 31.2722 114.913 31.1377 115.048C31.0032 115.183 30.8207 115.26 30.6304 115.26H29.4348V120.556H37.5652V115.26H36.3696C36.1793 115.26 35.9968 115.183 35.8623 115.048C35.7278 114.913 35.6522 114.729 35.6522 114.537C35.6522 114.346 35.7278 114.162 35.8623 114.027C35.9968 113.891 36.1793 113.815 36.3696 113.815H37.8043C38.1215 113.815 38.4256 113.942 38.6498 114.168C38.874 114.393 39 114.7 39 115.019ZM31.6162 112.641L32.7826 111.468V116.463C32.7826 116.655 32.8582 116.838 32.9927 116.974C33.1273 117.109 33.3097 117.185 33.5 117.185C33.6903 117.185 33.8727 117.109 34.0073 116.974C34.1418 116.838 34.2174 116.655 34.2174 116.463V111.468L35.3837 112.643C35.4505 112.71 35.5297 112.763 35.6169 112.8C35.7041 112.836 35.7975 112.855 35.8919 112.855C35.9863 112.855 36.0797 112.836 36.1669 112.8C36.2541 112.763 36.3333 112.71 36.4001 112.643C36.4668 112.576 36.5197 112.496 36.5558 112.408C36.5919 112.32 36.6105 112.226 36.6105 112.131C36.6105 112.036 36.5919 111.942 36.5558 111.854C36.5197 111.767 36.4668 111.687 36.4001 111.62L34.0087 109.212C33.9421 109.145 33.8629 109.092 33.7757 109.055C33.6885 109.019 33.595 109 33.5006 109C33.4062 109 33.3127 109.019 33.2255 109.055C33.1383 109.092 33.0591 109.145 32.9924 109.212L30.6011 111.62C30.5344 111.687 30.4815 111.767 30.4454 111.854C30.4092 111.942 30.3907 112.036 30.3907 112.131C30.3907 112.323 30.4664 112.507 30.6011 112.643C30.7359 112.778 30.9187 112.855 31.1093 112.855C31.2999 112.855 31.4827 112.778 31.6174 112.643L31.6162 112.641Z" fill="#484848"/>
<g filter="url(#filter1_d_1_56)">
<rect x="116" y="104" width="86" height="25" rx="12.5" fill="white"/>
<rect x="116.5" y="104.5" width="85" height="24" rx="12" stroke="#484848"/>
</g>
<path d="M146.873 117.479V116.386H149.662C150.368 116.386 150.915 116.203 151.303 115.839C151.69 115.47 151.884 114.962 151.884 114.314V114.301C151.884 113.649 151.69 113.141 151.303 112.776C150.915 112.412 150.368 112.229 149.662 112.229H146.873V111.136H149.977C150.596 111.136 151.143 111.268 151.617 111.532C152.091 111.797 152.463 112.166 152.731 112.64C153.005 113.114 153.142 113.663 153.142 114.287V114.301C153.142 114.925 153.005 115.477 152.731 115.955C152.463 116.434 152.091 116.807 151.617 117.076C151.143 117.345 150.596 117.479 149.977 117.479H146.873ZM146.258 121V111.136H147.488V121H146.258ZM155.008 121V113.631H156.197V114.725H156.307C156.448 114.337 156.687 114.036 157.024 113.822C157.362 113.608 157.779 113.501 158.275 113.501C158.389 113.501 158.501 113.508 158.61 113.521C158.724 113.531 158.811 113.54 158.87 113.549V114.704C158.747 114.681 158.626 114.665 158.508 114.656C158.394 114.643 158.271 114.636 158.139 114.636C157.76 114.636 157.425 114.711 157.134 114.861C156.842 115.012 156.612 115.221 156.443 115.49C156.279 115.759 156.197 116.074 156.197 116.434V121H155.008ZM160.367 121V113.631H161.557V121H160.367ZM160.969 112.209C160.745 112.209 160.552 112.129 160.388 111.97C160.228 111.806 160.148 111.612 160.148 111.389C160.148 111.161 160.228 110.967 160.388 110.808C160.552 110.648 160.745 110.568 160.969 110.568C161.197 110.568 161.39 110.648 161.55 110.808C161.709 110.967 161.789 111.161 161.789 111.389C161.789 111.612 161.709 111.806 161.55 111.97C161.39 112.129 161.197 112.209 160.969 112.209ZM163.799 121V113.631H164.988V114.738H165.098C165.285 114.346 165.553 114.043 165.904 113.829C166.255 113.61 166.702 113.501 167.244 113.501C168.074 113.501 168.709 113.738 169.151 114.212C169.598 114.681 169.821 115.354 169.821 116.229V121H168.632V116.516C168.632 115.85 168.491 115.358 168.208 115.039C167.93 114.715 167.497 114.554 166.909 114.554C166.517 114.554 166.178 114.638 165.891 114.807C165.604 114.975 165.38 115.215 165.221 115.524C165.066 115.834 164.988 116.206 164.988 116.639V121H163.799ZM174.593 121.055C173.836 121.055 173.287 120.902 172.945 120.597C172.608 120.291 172.439 119.788 172.439 119.086V114.615H171.277V113.631H172.439V111.724H173.67V113.631H175.283V114.615H173.67V118.785C173.67 119.218 173.752 119.53 173.916 119.722C174.08 119.909 174.354 120.002 174.736 120.002C174.841 120.002 174.93 120 175.003 119.995C175.08 119.991 175.174 119.984 175.283 119.975V120.986C175.169 121.005 175.055 121.021 174.941 121.034C174.827 121.048 174.711 121.055 174.593 121.055Z" fill="#484848"/>
<path d="M135 114V112.125H130V114H128.75V110.875H136.25V114H135ZM136.25 116.812C136.427 116.812 136.576 116.753 136.696 116.632C136.816 116.512 136.875 116.364 136.875 116.188C136.875 116.01 136.815 115.862 136.695 115.742C136.575 115.622 136.427 115.562 136.25 115.562C136.073 115.562 135.924 115.622 135.804 115.743C135.684 115.863 135.625 116.011 135.625 116.188C135.625 116.365 135.685 116.513 135.805 116.633C135.925 116.753 136.073 116.813 136.25 116.812ZM135 120.875V118.375H130V120.875H135ZM136.25 122.125H128.75V119.625H126.25V115.875C126.25 115.344 126.432 114.898 126.797 114.539C127.161 114.179 127.604 114 128.125 114H136.875C137.406 114 137.852 114.18 138.211 114.539C138.571 114.899 138.75 115.344 138.75 115.875V119.625H136.25V122.125ZM137.5 118.375V115.875C137.5 115.698 137.44 115.549 137.32 115.429C137.2 115.309 137.052 115.25 136.875 115.25H128.125C127.948 115.25 127.799 115.31 127.679 115.43C127.559 115.55 127.5 115.698 127.5 115.875V118.375H128.75V117.125H136.25V118.375H137.5Z" fill="#484848"/>
<defs>
<filter id="filter0_d_1_56" x="12" y="100" width="94" height="33" filterUnits="userSpaceOnUse" color-interpolation-filters="sRGB">
<feFlood flood-opacity="0" result="BackgroundImageFix"/>
<feColorMatrix in="SourceAlpha" type="matrix" values="0 0 0 0 0 0 0 0 0 0 0 0 0 0 0 0 0 0 127 0" result="hardAlpha"/>
<feOffset/>
<feGaussianBlur stdDeviation="2"/>
<feComposite in2="hardAlpha" operator="out"/>
<feColorMatrix type="matrix" values="0 0 0 0 0 0 0 0 0 0 0 0 0 0 0 0 0 0 0.25 0"/>
<feBlend mode="normal" in2="BackgroundImageFix" result="effect1_dropShadow_1_56"/>
<feBlend mode="normal" in="SourceGraphic" in2="effect1_dropShadow_1_56" result="shape"/>
</filter>
<filter id="filter1_d_1_56" x="112" y="100" width="94" height="33" filterUnits="userSpaceOnUse" color-interpolation-filters="sRGB">
<feFlood flood-opacity="0" result="BackgroundImageFix"/>
<feColorMatrix in="SourceAlpha" type="matrix" values="0 0 0 0 0 0 0 0 0 0 0 0 0 0 0 0 0 0 127 0" result="hardAlpha"/>
<feOffset/>
<feGaussianBlur stdDeviation="2"/>
<feComposite in2="hardAlpha" operator="out"/>
<feColorMatrix type="matrix" values="0 0 0 0 0 0 0 0 0 0 0 0 0 0 0 0 0 0 0.25 0"/>
<feBlend mode="normal" in2="BackgroundImageFix" result="effect1_dropShadow_1_56"/>
<feBlend mode="normal" in="SourceGraphic" in2="effect1_dropShadow_1_56" result="shape"/>
</filter>
</defs>
</svg>
