<svg width="42" height="42" viewBox="0 0 42 42" fill="none" xmlns="http://www.w3.org/2000/svg">
<path fill-rule="evenodd" clip-rule="evenodd" d="M28.3333 15.5C28.3333 17.4449 27.5607 19.3101 26.1854 20.6854C24.8102 22.0607 22.9449 22.8333 21 22.8333C19.0551 22.8333 17.1898 22.0607 15.8145 20.6854C14.4393 19.3101 13.6667 17.4449 13.6667 15.5C13.6667 13.555 14.4393 11.6898 15.8145 10.3145C17.1898 8.93924 19.0551 8.16663 21 8.16663C22.9449 8.16663 24.8102 8.93924 26.1854 10.3145C27.5607 11.6898 28.3333 13.555 28.3333 15.5ZM24.6667 15.5C24.6667 16.4724 24.2803 17.405 23.5927 18.0927C22.9051 18.7803 21.9725 19.1666 21 19.1666C20.0275 19.1666 19.0949 18.7803 18.4073 18.0927C17.7196 17.405 17.3333 16.4724 17.3333 15.5C17.3333 14.5275 17.7196 13.5949 18.4073 12.9072C19.0949 12.2196 20.0275 11.8333 21 11.8333C21.9725 11.8333 22.9051 12.2196 23.5927 12.9072C24.2803 13.5949 24.6667 14.5275 24.6667 15.5Z" fill="#4F617D"/>
<path fill-rule="evenodd" clip-rule="evenodd" d="M21 0.833313C9.8625 0.833313 0.833328 9.86248 0.833328 21C0.833328 32.1375 9.8625 41.1666 21 41.1666C32.1375 41.1666 41.1667 32.1375 41.1667 21C41.1667 9.86248 32.1375 0.833313 21 0.833313ZM4.5 21C4.5 24.8316 5.80716 28.359 7.998 31.1603C9.53659 29.1398 11.5215 27.5024 13.7976 26.3759C16.0738 25.2494 18.5795 24.6644 21.1192 24.6666C23.6259 24.6643 26.1002 25.2341 28.3534 26.3327C30.6066 27.4314 32.5793 29.0298 34.1212 31.0063C35.7097 28.9229 36.7792 26.4912 37.2413 23.9124C37.7034 21.3336 37.5448 18.6818 36.7786 16.1765C36.0124 13.6711 34.6606 11.3842 32.8351 9.50505C31.0095 7.62586 28.7628 6.20839 26.2807 5.36991C23.7986 4.53144 21.1525 4.29606 18.5614 4.68326C15.9703 5.07047 13.5086 6.06911 11.3801 7.59658C9.25153 9.12404 7.51732 11.1364 6.32092 13.4672C5.12452 15.7979 4.50033 18.3801 4.5 21ZM21 37.5C17.2122 37.5057 13.5388 36.2026 10.6013 33.8113C11.7837 32.1187 13.3574 30.7367 15.1887 29.7829C17.0199 28.8291 19.0544 28.3318 21.1192 28.3333C23.1581 28.3317 25.1681 28.8165 26.982 29.7476C28.796 30.6787 30.3617 32.0291 31.549 33.6866C28.5887 36.1556 24.8547 37.5054 21 37.5Z" fill="#4F617D"/>
</svg>
